<svg width="116" height="43" viewBox="0 0 116 43" fill="none" xmlns="http://www.w3.org/2000/svg">
<path d="M19.3026 42.9987C24.6847 42.9987 29.2747 41.2553 32.5737 37.955C32.6113 37.9174 32.6125 37.8548 32.5737 37.8159L30.7311 35.922C30.7098 35.8995 30.6798 35.8882 30.6497 35.8932C30.6196 35.8969 30.592 35.9145 30.5757 35.9396C28.0877 40.0332 24.0843 42.2881 19.3001 42.2881C10.8809 42.2881 5.22556 35.2126 5.22556 24.6827C5.22556 14.1528 10.8834 7.07861 19.3026 7.07861C24.1056 7.07861 28.1103 9.31469 30.5782 13.3757C30.5945 13.402 30.6208 13.4183 30.6509 13.4221C30.681 13.4271 30.7111 13.4158 30.7324 13.3945L32.5749 11.552C32.6138 11.5132 32.6138 11.4517 32.5749 11.4129C29.3587 8.144 24.8188 6.40051 19.448 6.36918C14.5334 6.34536 9.90704 8.24302 6.40377 11.7262C2.91177 15.1957 0.989047 19.7957 0.987794 24.6777C0.98654 30.0598 2.72502 34.6486 6.01646 37.9475C9.31418 41.2528 13.9079 43 19.3026 43V42.9987Z" fill="#101820"/>
<path d="M62.0979 39.063C62.0816 39.0505 62.0127 39.0355 61.9437 39.0267C61.8585 39.0167 61.772 39.0392 61.7018 39.0894L61.0726 39.5393C59.1812 40.7338 56.3147 41.7015 54.0548 41.7015H40.8664V12.9759C40.8664 11.2362 41.4092 8.89981 42.185 7.29545L42.3379 6.98836C42.353 6.95828 42.3517 6.92193 42.3342 6.89185C42.3166 6.86302 42.284 6.84547 42.2502 6.84547H35.1973C35.1634 6.84547 35.1308 6.86302 35.1133 6.89185C35.0958 6.92068 35.0932 6.95703 35.1095 6.98836L35.2637 7.2967C36.0696 8.85845 36.6324 11.1935 36.6324 12.9759C36.6324 12.9759 36.7026 33.7624 36.6863 34.6009C36.67 35.4407 36.6186 36.2817 36.4983 37.114C36.3767 37.9538 36.185 38.7835 35.8979 39.582C35.6109 40.3816 35.2211 41.1287 34.7774 41.8506C34.6357 42.08 34.4891 42.3069 34.3337 42.5262H60.8683C60.9109 42.5262 62.133 39.0894 62.1004 39.063H62.0979Z" fill="#101820"/>
<path d="M72.6237 23.1096C72.6237 23.1096 78.5974 15.158 81.9728 10.9942C83.2889 9.37103 90.8796 1.05091 92.8173 0.224917C92.9189 0.181048 92.8913 0.0306388 92.781 0.0293854C91.4524 0.0143445 87.9554 -0.0194974 86.4237 0.021865C86.3121 0.0243718 86.272 0.164753 86.361 0.233691C88.0832 1.55729 80.6242 10.85 79.3507 12.566C77.898 14.5213 71.5821 22.8439 71.5821 22.8439C71.3364 23.1974 70.9491 23.3992 70.518 23.4004H70.5155C70.0918 23.4004 69.6957 23.1936 69.4526 22.8477L66.2313 18.2514C65.3527 16.9993 62.6729 13.8156 60.0808 10.7372C57.6856 7.89326 55.4232 5.20596 54.6147 4.08792C53.2636 2.21909 51.6604 1.01582 49.7152 0.409168C48.8415 0.133418 47.9829 0.00055707 47.088 0.00055707H46.4952C46.0276 0.00055707 45.4423 -0.000696337 45.1465 0.00055707C45.1051 0.00055707 45.0675 0.0268786 45.0537 0.0669876C45.04 0.105843 45.0537 0.149713 45.0851 0.176034L46.4112 1.2477C47.8137 2.44219 49.4294 4.22203 50.4346 5.67975L66.7389 26.3622V36.3444C66.7389 38.1342 66.1887 40.4367 65.369 42.0749L65.216 42.382C65.201 42.4121 65.2023 42.4484 65.2198 42.4785C65.2374 42.5086 65.2699 42.5249 65.3038 42.5249H72.4081C72.4419 42.5249 72.4745 42.5074 72.4921 42.4785C72.5096 42.4497 72.5121 42.4133 72.4958 42.382L72.3417 42.0737C71.5107 40.5094 70.9729 38.2608 70.9729 36.3456V27.8137C70.9729 25.9937 71.5808 24.6049 72.6212 23.1096H72.6237Z" fill="#101820"/>
<path d="M112.434 13.194C111.268 11.5821 109.797 10.2008 108.115 9.13921C102.661 5.6961 95.3928 5.49054 89.6434 8.35834C87.401 9.47638 85.4445 11.1196 83.9705 13.1476C81.5439 16.4867 80.5436 20.643 80.5436 24.7266C80.5436 35.655 87.6379 42.9975 98.1966 42.9975C108.755 42.9975 115.85 35.655 115.85 24.7266C115.85 20.2707 114.669 16.2824 112.435 13.1927L112.434 13.194ZM98.1966 42.2906C90.0858 42.2906 84.6373 35.2326 84.6373 24.7278C84.6373 19.9849 85.7365 15.8462 87.8147 12.7578C91.3054 7.57245 98.5062 5.69986 104.044 8.62657C107.43 10.4164 109.688 13.9272 110.767 17.522C111.468 19.8533 111.757 22.2987 111.757 24.7291C111.757 35.2339 106.307 42.2918 98.1966 42.2918V42.2906Z" fill="#101820"/>
</svg>
