<?xml version="1.0" encoding="UTF-8"?>
<svg version="1.1" xmlns="http://www.w3.org/2000/svg" width="500" height="500">
<path d="M0 0 C0.77270233 -0.00701431 1.54540466 -0.01402863 2.34152222 -0.02125549 C4.82930379 -0.03869431 7.31684699 -0.04511045 9.8046875 -0.046875 C11.08206787 -0.04788712 11.08206787 -0.04788712 12.38525391 -0.04891968 C25.71102128 -0.03215278 38.57709794 0.6088844 51.6796875 3.203125 C52.99018066 3.44458252 52.99018066 3.44458252 54.32714844 3.69091797 C88.33345576 10.04649533 118.79866127 25.75176535 145.6796875 47.203125 C146.76560382 48.05731859 147.85154119 48.91148542 148.9375 49.765625 C154.71168548 54.37315919 154.71168548 54.37315919 156.6796875 56.203125 C156.6796875 56.863125 156.6796875 57.523125 156.6796875 58.203125 C157.3396875 58.203125 157.9996875 58.203125 158.6796875 58.203125 C158.6796875 58.863125 158.6796875 59.523125 158.6796875 60.203125 C159.3190625 60.47125 159.9584375 60.739375 160.6171875 61.015625 C162.6796875 62.203125 162.6796875 62.203125 163.6796875 65.203125 C164.3396875 65.203125 164.9996875 65.203125 165.6796875 65.203125 C165.6796875 65.863125 165.6796875 66.523125 165.6796875 67.203125 C166.3396875 67.203125 166.9996875 67.203125 167.6796875 67.203125 C167.6796875 67.863125 167.6796875 68.523125 167.6796875 69.203125 C168.3396875 69.203125 168.9996875 69.203125 169.6796875 69.203125 C171.43373842 71.20688456 173.06505736 73.21568293 174.6796875 75.328125 C175.41227783 76.27667358 175.41227783 76.27667358 176.15966797 77.24438477 C188.20727932 92.94284637 198.57232252 108.89098835 206.67602539 126.98803711 C207.40080128 128.58762154 208.14460784 130.17862999 208.90014648 131.76391602 C211.96052054 138.25788047 214.28774985 144.73707445 216.2421875 151.640625 C216.53955811 152.68484619 216.83692871 153.72906738 217.14331055 154.80493164 C232.57084981 210.10271545 226.44708913 268.52459739 198.60644531 318.89257812 C194.64464665 325.89318978 190.24490195 332.58503038 185.6796875 339.203125 C185.17050781 339.96238281 184.66132813 340.72164063 184.13671875 341.50390625 C183.03954929 343.10944162 181.86871704 344.66438089 180.6796875 346.203125 C180.0196875 346.203125 179.3596875 346.203125 178.6796875 346.203125 C178.421875 346.76515625 178.1640625 347.3271875 177.8984375 347.90625 C176.53798973 350.47017079 174.95179788 352.65538865 173.1796875 354.953125 C172.57125 355.75234375 171.9628125 356.5515625 171.3359375 357.375 C170.789375 357.97828125 170.2428125 358.5815625 169.6796875 359.203125 C169.0196875 359.203125 168.3596875 359.203125 167.6796875 359.203125 C167.6796875 359.863125 167.6796875 360.523125 167.6796875 361.203125 C167.0196875 361.203125 166.3596875 361.203125 165.6796875 361.203125 C165.339375 362.0384375 165.339375 362.0384375 164.9921875 362.890625 C163.30418714 365.86472088 161.21292233 367.92321365 158.6796875 370.203125 C158.0196875 370.203125 157.3596875 370.203125 156.6796875 370.203125 C156.6796875 370.863125 156.6796875 371.523125 156.6796875 372.203125 C156.0196875 372.203125 155.3596875 372.203125 154.6796875 372.203125 C154.6796875 372.863125 154.6796875 373.523125 154.6796875 374.203125 C152.67596251 375.95714566 150.66695196 377.58833725 148.5546875 379.203125 C147.6104895 379.93354004 147.6104895 379.93354004 146.6472168 380.67871094 C140.11481583 385.69801194 133.45144544 390.51311561 126.6796875 395.203125 C125.84953125 395.79480469 125.019375 396.38648438 124.1640625 396.99609375 C90.00002678 420.19457607 45.55842491 430.3343605 4.6796875 429.203125 C3.47957031 429.17476563 2.27945313 429.14640625 1.04296875 429.1171875 C-19.24374049 428.40410016 -39.04181329 424.42159101 -58.3203125 418.203125 C-58.98063477 417.99574707 -59.64095703 417.78836914 -60.32128906 417.57470703 C-70.17470425 414.45229235 -79.20441065 410.00031566 -88.3203125 405.203125 C-89.75310547 404.46255859 -89.75310547 404.46255859 -91.21484375 403.70703125 C-107.18189515 395.2567027 -121.03734829 385.19830481 -134.32421875 372.953125 C-136.20481925 371.15530521 -136.20481925 371.15530521 -138.3203125 370.203125 C-138.3203125 369.543125 -138.3203125 368.883125 -138.3203125 368.203125 C-138.88621094 367.97109375 -139.45210938 367.7390625 -140.03515625 367.5 C-167.39834013 351.97080846 -187.75003197 304.67148491 -196.25195312 276.06884766 C-198.23226684 268.83936154 -199.8456499 261.5506314 -201.3203125 254.203125 C-201.49820313 253.3570166 -201.67609375 252.5109082 -201.859375 251.63916016 C-206.75826637 227.58696435 -206.29191944 200.18886434 -201.3203125 176.203125 C-201.13807129 175.29433594 -200.95583008 174.38554687 -200.76806641 173.44921875 C-194.5208209 142.76099522 -182.18012902 108.32228786 -161.3203125 84.203125 C-160.6603125 84.203125 -160.0003125 84.203125 -159.3203125 84.203125 C-159.0934375 83.501875 -158.8665625 82.800625 -158.6328125 82.078125 C-156.98189962 78.46183965 -155.029429 76.11542524 -152.3203125 73.203125 C-151.6603125 73.203125 -151.0003125 73.203125 -150.3203125 73.203125 C-149.93117676 72.32829468 -149.93117676 72.32829468 -149.53417969 71.43579102 C-147.32547802 67.37332585 -143.82965574 64.37617223 -140.5703125 61.140625 C-139.80968506 60.38346191 -139.04905762 59.62629883 -138.26538086 58.84619141 C-131.67677668 52.38203024 -124.77016622 46.63724523 -117.3203125 41.203125 C-116.45148438 40.56246094 -115.58265625 39.92179687 -114.6875 39.26171875 C-85.33958918 18.17085679 -52.05348586 5.73182703 -16.3203125 1.203125 C-14.45886597 0.94402344 -14.45886597 0.94402344 -12.55981445 0.6796875 C-8.3654125 0.15898422 -4.22326887 0.02578153 0 0 Z M-120.9140625 61.12109375 C-123.3203125 63.203125 -123.3203125 63.203125 -125.3203125 64.203125 C-125.3203125 64.863125 -125.3203125 65.523125 -125.3203125 66.203125 C-125.9803125 66.203125 -126.6403125 66.203125 -127.3203125 66.203125 C-127.3203125 66.863125 -127.3203125 67.523125 -127.3203125 68.203125 C-127.9803125 68.203125 -128.6403125 68.203125 -129.3203125 68.203125 C-131.00763527 70.18572926 -132.67397307 72.1863592 -134.3203125 74.203125 C-135.3103125 74.698125 -135.3103125 74.698125 -136.3203125 75.203125 C-136.3203125 75.863125 -136.3203125 76.523125 -136.3203125 77.203125 C-136.9803125 77.203125 -137.6403125 77.203125 -138.3203125 77.203125 C-139.92665265 78.93704451 -141.4578412 80.741216 -142.9453125 82.578125 C-143.76257813 83.57585937 -144.57984375 84.57359375 -145.421875 85.6015625 C-147.51680219 87.93562385 -147.51680219 87.93562385 -147.3203125 90.203125 C-147.9803125 90.203125 -148.6403125 90.203125 -149.3203125 90.203125 C-152.28266945 93.83636189 -152.28266945 93.83636189 -153.3203125 98.203125 C-153.9803125 98.203125 -154.6403125 98.203125 -155.3203125 98.203125 C-156.58100032 99.7632156 -156.58100032 99.7632156 -157.7890625 101.83984375 C-158.27294434 102.63422852 -158.75682617 103.42861328 -159.25537109 104.24707031 C-159.77180176 105.11944336 -160.28823242 105.99181641 -160.8203125 106.890625 C-161.62009521 108.23592285 -161.62009521 108.23592285 -162.43603516 109.60839844 C-189.64891974 156.16889141 -199.00218462 209.45806597 -186.3203125 262.203125 C-186.16369141 262.87263184 -186.00707031 263.54213867 -185.84570312 264.23193359 C-181.15247037 283.92642852 -172.58553328 301.84023728 -162.3203125 319.203125 C-161.74925781 320.193125 -161.17820312 321.183125 -160.58984375 322.203125 C-155.73527129 330.25811931 -149.65426792 337.37489059 -143.62963867 344.56835938 C-142.44292898 346.05003159 -141.37331297 347.6236243 -140.3203125 349.203125 C-139.6603125 349.203125 -139.0003125 349.203125 -138.3203125 349.203125 C-138.3203125 349.863125 -138.3203125 350.523125 -138.3203125 351.203125 C-137.6603125 351.203125 -137.0003125 351.203125 -136.3203125 351.203125 C-135.93359375 352.07710938 -135.93359375 352.07710938 -135.5390625 352.96875 C-134.22197233 355.3834153 -132.76942866 357.02052677 -130.8203125 358.953125 C-129.90765625 359.87351562 -129.90765625 359.87351562 -128.9765625 360.8125 C-127.42546973 362.41746588 -127.42546973 362.41746588 -125.3203125 362.203125 C-125.3203125 362.863125 -125.3203125 363.523125 -125.3203125 364.203125 C-124.6603125 364.203125 -124.0003125 364.203125 -123.3203125 364.203125 C-123.3203125 364.863125 -123.3203125 365.523125 -123.3203125 366.203125 C-121.00503167 368.12593378 -118.68210417 369.92634594 -116.2578125 371.703125 C-115.17765869 372.50290771 -115.17765869 372.50290771 -114.07568359 373.31884766 C-106.98244681 378.52840331 -99.71343482 383.43198211 -92.3203125 388.203125 C-91.52109375 388.74324219 -90.721875 389.28335937 -89.8984375 389.83984375 C-81.0648135 395.55663943 -71.04116995 399.28118627 -61.3203125 403.203125 C-60.58361328 403.50283203 -59.84691406 403.80253906 -59.08789062 404.11132812 C-12.11807423 422.90814206 43.26541594 419.95662979 89.42041016 400.4387207 C103.70065742 394.20905156 117.39177413 386.8232677 129.6796875 377.203125 C130.4428125 376.63078125 131.2059375 376.0584375 131.9921875 375.46875 C136.99981471 371.6782544 141.67373427 367.59177905 146.3046875 363.3515625 C148.42900019 361.42989806 150.5973121 359.59026999 152.8046875 357.765625 C153.7534375 356.92 154.7021875 356.074375 155.6796875 355.203125 C155.6796875 354.543125 155.6796875 353.883125 155.6796875 353.203125 C156.3396875 353.203125 156.9996875 353.203125 157.6796875 353.203125 C159.11781423 351.63371699 160.479988 349.99438465 161.8046875 348.328125 C163.01511719 346.8121875 163.01511719 346.8121875 164.25 345.265625 C165.05179687 344.255 165.85359375 343.244375 166.6796875 342.203125 C167.69675781 340.965625 167.69675781 340.965625 168.734375 339.703125 C176.79012034 329.86799815 183.97642719 319.58161976 189.6796875 308.203125 C190.01468262 307.54634766 190.34967773 306.88957031 190.69482422 306.21289062 C214.79055406 258.68100501 219.24421793 203.70236073 203.18505859 152.79199219 C196.51589962 132.70683789 187.39840946 114.19192148 174.6796875 97.203125 C174.15246094 96.49542969 173.62523437 95.78773438 173.08203125 95.05859375 C162.05477003 80.59020136 150.17974396 67.28014761 135.6796875 56.203125 C134.62386994 55.36991958 133.56924133 54.53520597 132.515625 53.69921875 C126.16507183 48.68843288 119.73857904 44.17250169 112.6796875 40.203125 C111.50952699 39.51061571 110.34032698 38.81648193 109.171875 38.12109375 C87.32805618 25.27586409 64.54484751 18.36396837 39.6796875 14.203125 C38.65439941 14.02305908 38.65439941 14.02305908 37.60839844 13.83935547 C-17.97000061 4.28192191 -79.07449744 24.05805084 -120.9140625 61.12109375 Z " fill="#F9FBF6" transform="translate(239.3203125,34.796875)"/>
<path d="M0 0 C1.02802734 -0.03738281 2.05605469 -0.07476562 3.11523438 -0.11328125 C10.66117773 -0.20130911 10.66117773 -0.20130911 14.12109375 2.3671875 C14.88550781 3.35976562 15.64992187 4.35234375 16.4375 5.375 C17.76590524 6.7339215 19.11142975 8.0762087 20.46875 9.40625 C28.125 17.0625 35.78125 24.71875 43.4375 32.375 C44.20078613 33.13756104 44.96407227 33.90012207 45.75048828 34.68579102 C47.9986144 36.9357555 50.2424875 39.18982716 52.48361206 41.44676208 C54.54852507 43.52524944 56.61627558 45.60090536 58.68408203 47.67651367 C59.76701715 48.76448192 60.84905363 49.85334541 61.93017578 50.94311523 C67.59203779 56.64890103 73.27494007 62.20373657 79.4375 67.375 C81.1891032 69.31740176 82.80205957 71.33069946 84.4375 73.375 C84.97089996 73.84342819 85.50429993 74.31185638 86.05386353 74.79447937 C87.81145964 76.80217212 87.8169471 77.83536421 87.82568359 80.47583008 C87.83514008 81.29710892 87.84459656 82.11838776 87.8543396 82.96455383 C87.84826691 83.84894638 87.84219421 84.73333893 87.8359375 85.64453125 C87.83880768 86.55829025 87.84167786 87.47204926 87.84463501 88.41349792 C87.8466769 90.34769306 87.84113832 92.28190879 87.82861328 94.21606445 C87.81261658 97.16600247 87.82842906 100.11455884 87.84765625 103.06445312 C87.84567276 104.94531551 87.84182689 106.82617704 87.8359375 108.70703125 C87.84201019 109.5853511 87.84808289 110.46367096 87.8543396 111.36860657 C87.79655568 116.44482236 87.26745192 119.98418072 84.4375 124.375 C81.79114386 126.52069417 80.07497655 127.29497441 76.69921875 127.71875 C72.50157919 127.27636403 69.86768882 125.4377637 66.5625 123 C65.96953125 122.5875 65.3765625 122.175 64.765625 121.75 C63.27690805 120.68663075 61.85082728 119.53669631 60.4375 118.375 C60.4375 117.715 60.4375 117.055 60.4375 116.375 C59.40689453 116.03662109 59.40689453 116.03662109 58.35546875 115.69140625 C54.69935383 114.0419943 51.86632223 111.80767533 48.75 109.3125 C44.78820369 106.04941696 44.78820369 106.04941696 40.4375 103.375 C40.4375 102.715 40.4375 102.055 40.4375 101.375 C39.73238281 101.13265625 39.02726562 100.8903125 38.30078125 100.640625 C35.00041358 99.18179946 32.48212506 97.32682115 29.625 95.125 C28.11612779 93.96892882 26.60649354 92.81364932 25.08129883 91.67919922 C23.4375 90.375 23.4375 90.375 21.81518555 88.76220703 C15.42012532 82.89084638 8.05317905 83.61301526 -0.125 83.75 C-17.26682352 83.94888413 -17.26682352 83.94888413 -22.5625 79.375 C-25.11272513 75.11318278 -25.94200678 71.94762583 -25.96655273 67.00585938 C-25.97923691 65.76437134 -25.99192108 64.5228833 -26.00498962 63.24377441 C-26.00293812 61.9020979 -25.99995004 60.56042254 -25.99609375 59.21875 C-26.00066001 57.82922105 -26.00596691 56.43969435 -26.01197815 55.0501709 C-26.02088874 52.14517003 -26.01850925 49.24044439 -26.00854492 46.33544922 C-25.99704841 42.62309288 -26.01728614 38.91168682 -26.04646206 35.19945526 C-26.0648555 32.33227565 -26.06452562 29.46532259 -26.05882454 26.59809875 C-26.05867176 25.22982956 -26.06468058 23.8615446 -26.07711601 22.49333191 C-26.18010149 9.30764674 -26.18010149 9.30764674 -21.5625 4.375 C-15.98672754 -1.01491338 -7.26504995 0.10058597 0 0 Z " fill="#FAFAF7" transform="translate(181.5625,208.625)"/>
<path d="M0 0 C2.75169917 1.66621993 4.84794764 3.79359564 7.07144165 6.10267639 C7.72347734 6.74717112 8.37551303 7.39166584 9.04730737 8.05569071 C11.2197608 10.21266854 13.36246206 12.396929 15.50634766 14.58227539 C17.06108953 16.13763705 18.61758825 17.69124426 20.17570496 19.2432251 C24.3982489 23.45920327 28.59559583 27.69948411 32.78875017 31.9446671 C37.18498112 36.38724442 41.60353283 40.80751027 46.0196228 45.23033142 C53.43508025 52.6632593 60.83608632 60.11035951 68.2265625 67.56811523 C75.81850173 75.2291023 83.42008622 82.88031607 91.03417969 90.51928711 C91.50278965 90.98943346 91.97139961 91.45957981 92.45420988 91.94397301 C94.80632515 94.30371891 97.158546 96.66335952 99.51079106 99.02297604 C113.50699476 113.06576567 127.49598369 127.11589518 141.45505714 141.19560242 C142.96389924 142.71690743 144.47352117 144.23743948 145.98399544 145.75712395 C148.05246616 147.83863523 150.11788937 149.92312432 152.18252563 152.00843811 C152.77465745 152.60311404 153.36678926 153.19778997 153.97686446 153.81048638 C157.67130699 157.5504297 161.17522918 161.41892737 164.61077058 165.39814085 C165.38223853 166.2876865 166.16739738 167.16739738 167 168 C167.50257846 172.5232061 167.84814266 176.60904603 165.4375 180.5625 C162.17994589 182.48362165 159.77864098 182.93370805 156 183 C153.0625 181.6875 153.0625 181.6875 151 180 C151 179.34 151 178.68 151 178 C150.34 178 149.68 178 149 178 C147.61441708 176.5938549 147.61441708 176.5938549 145.98118591 174.61129761 C141.67328695 169.55039919 137.01636727 164.89855497 132.30102539 160.21923828 C131.34410689 159.26588436 130.38742838 158.3122895 129.43096924 157.35847473 C127.38733412 155.32134045 125.34219828 153.28572963 123.29588509 151.25128555 C120.06183133 148.03564554 116.83223307 144.81555526 113.6033783 141.59469604 C104.42709466 132.44247978 95.24478752 123.29632038 86.05834961 114.15429688 C80.97240754 109.0928661 75.89003723 104.02787612 70.8115043 98.95901096 C67.60005681 95.75411398 64.38415123 92.55377932 61.16489899 89.35672307 C59.17106425 87.3745787 57.18138525 85.38830427 55.19288635 83.40080833 C53.82462042 82.03572892 52.4513594 80.67566209 51.07798767 79.3157196 C50.27193085 78.50835861 49.46587402 77.70099762 48.63539124 76.86917114 C47.92917161 76.16609392 47.22295198 75.4630167 46.49533176 74.73863411 C45 73 45 73 45 71 C44.45859375 70.7834375 43.9171875 70.566875 43.359375 70.34375 C40.18354656 68.53500003 37.79271919 66.08276201 35.25 63.5 C34.74339844 63.00113281 34.23679688 62.50226563 33.71484375 61.98828125 C30 58.25341139 30 58.25341139 30 56 C29.45859375 55.7834375 28.9171875 55.566875 28.359375 55.34375 C25.18354656 53.53500003 22.79271919 51.08276201 20.25 48.5 C19.74339844 48.00113281 19.23679688 47.50226563 18.71484375 46.98828125 C15 43.25341139 15 43.25341139 15 41 C14.43796875 40.7628125 13.8759375 40.525625 13.296875 40.28125 C10.48105958 38.71052303 8.52044584 36.78528536 6.25 34.5 C5.45078125 33.7059375 4.6515625 32.911875 3.828125 32.09375 C2 30 2 30 2 28 C1.43796875 27.7628125 0.8759375 27.525625 0.296875 27.28125 C-2.51894042 25.71052303 -4.47955416 23.78528536 -6.75 21.5 C-7.54921875 20.7059375 -8.3484375 19.911875 -9.171875 19.09375 C-11 17 -11 17 -11 15 C-11.66 15 -12.32 15 -13 15 C-15.10188936 11.58442978 -15.4871351 8.97827 -15 5 C-10.76887207 -1.3466919 -7.13999582 -1.89762122 0 0 Z " fill="#F9FBF7" transform="translate(177,153)"/>
<path d="M0 0 C3.37624627 0.89757058 4.76424616 2.81166905 6.91015625 5.5078125 C7.44253906 6.11625 7.97492188 6.7246875 8.5234375 7.3515625 C23.22199524 24.8203584 27.48093915 47.24112934 25.91015625 69.5078125 C24.29015157 81.75284789 20.37011157 94.5612054 12.91015625 104.5078125 C8.99946822 102.85329064 6.09084245 100.28245365 2.91015625 97.5078125 C2.29140625 97.0334375 1.67265625 96.5590625 1.03515625 96.0703125 C-0.74576678 93.59680829 -0.29045818 91.4919521 -0.08984375 88.5078125 C0.93359375 85.71875 0.93359375 85.71875 2.28515625 82.8828125 C8.89401343 67.75545668 8.27025258 51.23391212 2.66015625 35.8828125 C-0.0099565 29.32173899 -2.99313221 22.43883283 -8.20703125 17.50390625 C-10.8590652 14.69231009 -11.06027578 12.52534053 -11.30859375 8.76953125 C-11.06755057 6.2773169 -10.5859544 4.98433305 -9.15234375 2.9453125 C-5.76680335 0.25069871 -4.20984353 -0.36196786 0 0 Z " fill="#F7F8F3" transform="translate(319.08984375,189.4921875)"/>
<path d="M0 0 C3.44684645 2.44907511 4.6669781 5.06354018 6 9 C6.24050903 11.61335754 6.24050903 11.61335754 6.22705078 14.43286133 C6.22689972 15.49358353 6.22674866 16.55430573 6.22659302 17.64717102 C6.21627045 18.7806749 6.20594788 19.91417877 6.1953125 21.08203125 C6.1924826 22.25134689 6.18965271 23.42066254 6.18673706 24.62541199 C6.17555562 28.35454608 6.15045434 32.08343868 6.125 35.8125 C6.11496759 38.34309549 6.10584219 40.87369474 6.09765625 43.40429688 C6.07562292 49.60294677 6.04216534 55.80145613 6 62 C1.44653224 62 1.18671702 61.69111253 -1.86645508 58.66699219 C-2.61014847 57.93913513 -3.35384186 57.21127808 -4.12007141 56.46136475 C-4.91189316 55.66458313 -5.7037149 54.86780151 -6.51953125 54.046875 C-7.3374968 53.23510803 -8.15546234 52.42334106 -8.99821472 51.5869751 C-10.7254216 49.86687666 -12.44749044 48.14160593 -14.16479492 46.41162109 C-16.80380866 43.75873702 -19.46591288 41.13070826 -22.13085938 38.50390625 C-23.80353564 36.83218104 -25.47480854 35.15905023 -27.14453125 33.484375 C-27.94647415 32.69569031 -28.74841705 31.90700562 -29.57466125 31.09442139 C-30.30259384 30.35395569 -31.03052643 29.61348999 -31.78051758 28.85058594 C-32.4279744 28.20216736 -33.07543121 27.55374878 -33.74250793 26.88568115 C-35 25 -35 25 -34.87675476 22.93023682 C-33.35346065 19.57659849 -30.35671585 17.53601149 -27.5625 15.25 C-26.93375977 14.7243042 -26.30501953 14.1986084 -25.65722656 13.65698242 C-23.78029404 12.09358837 -21.89238859 10.54463114 -20 9 C-18.98292969 8.16597656 -17.96585938 7.33195313 -16.91796875 6.47265625 C-7.58535079 -1.08362154 -7.58535079 -1.08362154 0 0 Z " fill="#F9FAF6" transform="translate(263,167)"/>
<path d="M0 0 C3.33679297 1.35406091 5.08364879 3.80158553 6.88671875 6.765625 C7.42425781 7.63380859 7.42425781 7.63380859 7.97265625 8.51953125 C14.41012835 20.11182123 15.91462232 33.9995406 12.44946289 46.73095703 C11.65419612 49.42968876 10.79334587 52.10240782 9.88671875 54.765625 C4.46482253 54.12016116 0.7449486 49.6708341 -2.8125 45.87109375 C-5.83713226 41.78861049 -5.91241161 39.38261514 -5.37890625 34.46875 C-4.59056346 26.44620281 -7.75385322 19.30476705 -12.11328125 12.765625 C-12.51281915 9.66920625 -12.75722431 7.7266132 -12.11328125 4.765625 C-8.48949158 0.32648265 -5.69870712 -1.17230547 0 0 Z " fill="#F7F8F3" transform="translate(299.11328125,215.234375)"/>
<path d="M0 0 C0.33 0 0.66 0 1 0 C1.0154612 1.13965714 1.0154612 1.13965714 1.03123474 2.30233765 C1.12911217 9.45383955 1.23161256 16.605253 1.33933926 23.75661278 C1.39456189 27.43341429 1.44798081 31.11022376 1.49731445 34.78710938 C1.54496779 38.33385866 1.59731091 41.88051026 1.65294075 45.4271431 C1.67335992 46.7819336 1.69207374 48.13675088 1.70907402 49.49158859 C1.73312739 51.38556789 1.76374383 53.27946043 1.79467773 55.17333984 C1.81022202 56.25255707 1.8257663 57.33177429 1.84178162 58.44369507 C1.83212193 60.99016557 1.83212193 60.99016557 3 63 C2.01 63.99 2.01 63.99 1 65 C-0.37332694 62.25334611 -0.11964892 60.06375932 -0.11352539 56.98974609 C-0.11344986 55.72858978 -0.11337433 54.46743347 -0.11329651 53.1680603 C-0.10818949 51.78651897 -0.10297349 50.40497804 -0.09765625 49.0234375 C-0.09579144 47.6138209 -0.09436783 46.20420366 -0.09336853 44.79458618 C-0.08954833 41.08246068 -0.07972228 37.37037422 -0.06866455 33.65826416 C-0.05843975 29.87113981 -0.05386862 26.08400917 -0.04882812 22.296875 C-0.03809958 14.86456552 -0.02102911 7.43228823 0 0 Z " fill="#E7F1E0" transform="translate(156,219)"/>
<path d="M0 0 C0 4.62391163 -2.87674602 6.7907242 -6 10 C-7.97763804 11.80891099 -9.9937398 13.55719922 -12.0390625 15.2890625 C-13.91779275 16.92827336 -15.64682821 18.64188736 -17.375 20.4375 C-20 23 -20 23 -22 23 C-20.55480663 19.68545526 -18.74845019 17.50259028 -16.19140625 14.9609375 C-15.44439453 14.21585938 -14.69738281 13.47078125 -13.92773438 12.703125 C-13.14720703 11.93484375 -12.36667969 11.1665625 -11.5625 10.375 C-10.78583984 9.59898438 -10.00917969 8.82296875 -9.20898438 8.0234375 C-3.42206101 2.28137401 -3.42206101 2.28137401 0 0 Z " fill="#EDF4E6" transform="translate(111,85)"/>
<path d="M0 0 C0.66 0.33 1.32 0.66 2 1 C2 1.66 2 2.32 2 3 C0.948125 2.731875 -0.10375 2.46375 -1.1875 2.1875 C-5.11752587 1.54419428 -5.11752587 1.54419428 -7.625 4.375 C-8.40875 5.24125 -9.1925 6.1075 -10 7 C-12.5625 7.75 -12.5625 7.75 -15 8 C-16.33542939 8.32483418 -17.66961551 8.6550855 -19 9 C-12.93179783 2.57484476 -8.88890436 -0.74074203 0 0 Z " fill="#EDF2E0" transform="translate(263,167)"/>
<path d="M0 0 C0 3 0 3 -1.42578125 4.7890625 C-2.04839844 5.39492187 -2.67101562 6.00078125 -3.3125 6.625 C-3.92738281 7.23601562 -4.54226562 7.84703125 -5.17578125 8.4765625 C-7 10 -7 10 -10 11 C-11.21869929 13.50447516 -11.21869929 13.50447516 -12 16 C-12.66 15.67 -13.32 15.34 -14 15 C-13.43404872 11.73277853 -12.61909146 10.29129789 -10.05859375 8.203125 C-9.18364258 7.47802734 -9.18364258 7.47802734 -8.29101562 6.73828125 C-7.67935547 6.24714844 -7.06769531 5.75601563 -6.4375 5.25 C-5.82197266 4.74339844 -5.20644531 4.23679688 -4.57226562 3.71484375 C-3.05505562 2.46814405 -1.52841574 1.2329362 0 0 Z " fill="#E7EFD4" transform="translate(242,177)"/>
<path d="M0 0 C1.60568666 0.28317926 3.20952047 0.57687791 4.8125 0.875 C6.15248047 1.11863281 6.15248047 1.11863281 7.51953125 1.3671875 C10 2 10 2 13 4 C13.66 4.33 14.32 4.66 15 5 C15 5.66 15 6.32 15 7 C11.14974121 6.39644592 8.13898841 5.23227397 4.6875 3.4375 C3.80449219 2.98246094 2.92148438 2.52742188 2.01171875 2.05859375 C1.34785156 1.70925781 0.68398437 1.35992187 0 1 C0 0.67 0 0.34 0 0 Z " fill="#F0F8E2" transform="translate(151,439)"/>
<path d="M0 0 C0.33 0 0.66 0 1 0 C2.07064209 4.60376099 1.75375386 6.71304612 0 11 C-0.30404868 13.62961024 -0.49989843 16.24828355 -0.65625 18.890625 C-0.7696875 19.58671875 -0.883125 20.2828125 -1 21 C-1.66 21.33 -2.32 21.66 -3 22 C-3.45755719 14.37404682 -1.74536299 7.3970146 0 0 Z " fill="#ECF4E4" transform="translate(40,201)"/>
<path d="M0 0 C0.33 0.66 0.66 1.32 1 2 C0.06421005 4.35981813 -0.93347808 6.69631264 -2 9 C-1.01 9 -0.02 9 1 9 C1.33 10.98 1.66 12.96 2 15 C0.05859375 14.2734375 0.05859375 14.2734375 -2 13 C-3.04132381 10.05242768 -3.16580257 7.1115616 -3 4 C-1.5625 1.4375 -1.5625 1.4375 0 0 Z " fill="#E6EEDD" transform="translate(311,192)"/>
<path d="M0 0 C0.66 0.33 1.32 0.66 2 1 C2 1.66 2 2.32 2 3 C2.185625 3.66 2.37125 4.32 2.5625 5 C3 7 3 7 2 9 C0.02 6.69 -1.96 4.38 -4 2 C-2.68 1.34 -1.36 0.68 0 0 Z " fill="#EAF1E4" transform="translate(236,193)"/>
<path d="M0 0 C0.66 0 1.32 0 2 0 C2 2.97 2 5.94 2 9 C0.68 9 -0.64 9 -2 9 C-2.33 8.34 -2.66 7.68 -3 7 C-2.2575 6.38125 -2.2575 6.38125 -1.5 5.75 C0.43386092 3.87797662 0.43386092 3.87797662 0 0 Z " fill="#E6F1CC" transform="translate(267,220)"/>
<path d="M0 0 C0.53625 0.268125 1.0725 0.53625 1.625 0.8125 C0.635 0.8125 -0.355 0.8125 -1.375 0.8125 C-1.705 1.4725 -2.035 2.1325 -2.375 2.8125 C-3.035 3.39 -3.695 3.9675 -4.375 4.5625 C-6.80637028 7.29779156 -7.04881532 9.2244685 -7.375 12.8125 C-7.705 12.8125 -8.035 12.8125 -8.375 12.8125 C-9.08683484 5.81279078 -9.08683484 5.81279078 -7.1796875 3.1328125 C-4.82884033 1.04185798 -3.21187412 -0.25356901 0 0 Z " fill="#E3ECD8" transform="translate(295.375,215.1875)"/>
<path d="M0 0 C0.75 1.75 0.75 1.75 1 4 C-0.8125 6.25 -0.8125 6.25 -3 8 C-3.66 8 -4.32 8 -5 8 C-4.45773019 4.20411134 -2.79872437 2.52788007 0 0 Z " fill="#F1F8DE" transform="translate(343,327)"/>
<path d="M0 0 C0.33 0 0.66 0 1 0 C1.36923077 7.38461538 1.36923077 7.38461538 -0.5 10.5 C-0.995 10.995 -1.49 11.49 -2 12 C-3.12377697 8.69564916 -2.89554742 6.9493138 -1.5625 3.75 C-1.27503906 3.04359375 -0.98757812 2.3371875 -0.69140625 1.609375 C-0.46324219 1.07828125 -0.23507813 0.5471875 0 0 Z " fill="#EDF4E0" transform="translate(47,177)"/>
<path d="M0 0 C1.15955441 3.47866322 1 6.35001677 1 10 C1.33 10.99 1.66 11.98 2 13 C1.34 13 0.68 13 0 13 C-2.09429461 9.59677126 -2.33706208 6.96047946 -2 3 C-1.34 2.01 -0.68 1.02 0 0 Z " fill="#E2EAD5" transform="translate(164,155)"/>
<path d="M0 0 C-0.33 1.98 -0.66 3.96 -1 6 C-2.9375 5.625 -2.9375 5.625 -5 5 C-5.33 4.34 -5.66 3.68 -6 3 C-2.25 0 -2.25 0 0 0 Z " fill="#E6F0DB" transform="translate(310,264)"/>
<path d="M0 0 C0.99 0.33 1.98 0.66 3 1 C4.62323754 4.75907641 5.23994929 7.92086213 5 12 C3.20931427 9.3139714 2.33944209 7.3373411 1.375 4.3125 C1.11460937 3.50425781 0.85421875 2.69601563 0.5859375 1.86328125 C0.39257812 1.24839844 0.19921875 0.63351563 0 0 Z " fill="#EDF2E5" transform="translate(434,166)"/>
<path d="M0 0 C-0.598125 0.2475 -1.19625 0.495 -1.8125 0.75 C-4.28647521 2.16370012 -5.43370255 3.65055383 -7 6 C-7.99 5.67 -8.98 5.34 -10 5 C-7.62417533 -0.26075462 -5.61350876 -0.1220328 0 0 Z " fill="#EDF6E7" transform="translate(174,152)"/>
<path d="M0 0 C0.66 0.33 1.32 0.66 2 1 C2 1.66 2 2.32 2 3 C1.34 3 0.68 3 0 3 C0 3.66 0 4.32 0 5 C-0.66 5 -1.32 5 -2 5 C-2 5.66 -2 6.32 -2 7 C-2.99 7.33 -3.98 7.66 -5 8 C-5.33 7.34 -5.66 6.68 -6 6 C-5.01 6 -4.02 6 -3 6 C-2.87625 5.38125 -2.7525 4.7625 -2.625 4.125 C-2 2 -2 2 0 0 Z " fill="#EFF5E7" transform="translate(396,402)"/>
<path d="M0 0 C0.66 0.33 1.32 0.66 2 1 C0.7260411 3.03833424 -0.61061923 5.03852126 -2 7 C-2.66 7 -3.32 7 -4 7 C-4.33 7.66 -4.66 8.32 -5 9 C-4.5206753 4.68607774 -3.2542015 2.83430453 0 0 Z " fill="#EEF5E4" transform="translate(422,374)"/>
<path d="M0 0 C1.98 0 3.96 0 6 0 C3.93243723 2.7972908 2.85559629 3.02692273 -0.6875 3.6875 C-1.780625 3.790625 -2.87375 3.89375 -4 4 C-3.01 3.67 -2.02 3.34 -1 3 C-0.67 2.01 -0.34 1.02 0 0 Z " fill="#E9F1DA" transform="translate(260,332)"/>
<path d="M0 0 C1.32 0 2.64 0 4 0 C4 0.66 4 1.32 4 2 C4.66 2.33 5.32 2.66 6 3 C6 3.99 6 4.98 6 6 C3.11562221 4.70700306 1.12780579 3.34058637 -1 1 C-0.67 0.67 -0.34 0.34 0 0 Z " fill="#ECF2DD" transform="translate(229,314)"/>
<path d="M0 0 C2.79872437 2.52788007 4.45773019 4.20411134 5 8 C1.125 6.125 1.125 6.125 0 5 C-0.04063832 3.33382885 -0.042721 1.66611905 0 0 Z " fill="#E9F1E0" transform="translate(329,200)"/>
<path d="M0 0 C0.33 0.99 0.66 1.98 1 3 C-0.62339805 4.70884005 -2.29319053 6.37446717 -4 8 C-4.66 8 -5.32 8 -6 8 C-4.55746343 4.63408134 -2.66735273 2.48952921 0 0 Z " fill="#E5F2DC" transform="translate(95,100)"/>
<path d="M0 0 C0.66 0.33 1.32 0.66 2 1 C2 1.66 2 2.32 2 3 C1.38125 3.2475 0.7625 3.495 0.125 3.75 C-2.35068687 5.20628639 -2.95125002 6.37812506 -4 9 C-4.33 8.01 -4.66 7.02 -5 6 C-3.59554165 3.7363436 -1.8032087 1.9791315 0 0 Z " fill="#DFEDD8" transform="translate(162,211)"/>
<path d="M0 0 C8.57142857 -0.28571429 8.57142857 -0.28571429 12 2 C9.36 2.33 6.72 2.66 4 3 C4 2.34 4 1.68 4 1 C2.68 0.67 1.36 0.34 0 0 Z " fill="#EFF5DD" transform="translate(278,37)"/>
<path d="M0 0 C3.3 0 6.6 0 10 0 C7.09907498 1.93395001 6.10325263 2.30131941 2.8125 2.625 C1.554375 2.74875 0.29625 2.8725 -1 3 C-0.67 2.01 -0.34 1.02 0 0 Z " fill="#E7F2E0" transform="translate(294,456)"/>
<path d="M0 0 C0.66 0.33 1.32 0.66 2 1 C2.40729228 3.32156597 2.74438677 5.6568787 3 8 C0.47411298 5.63707344 -0.88820837 4.33537489 -2 1 C-1.34 0.67 -0.68 0.34 0 0 Z " fill="#EDF5E6" transform="translate(315,207)"/>
<path d="M0 0 C3.63 0.66 7.26 1.32 11 2 C11 2.33 11 2.66 11 3 C7.7 3 4.4 3 1 3 C0.67 2.01 0.34 1.02 0 0 Z " fill="#EBF1E5" transform="translate(297,40)"/>
</svg>
