<?xml version="1.0" encoding="UTF-8"?>
<svg version="1.1" xmlns="http://www.w3.org/2000/svg" width="500" height="500">
<path d="M0 0 C0.67450195 0.20737793 1.34900391 0.41475586 2.04394531 0.62841797 C20.24731093 6.33657518 38.54560062 16.26807343 53.9375 27.5 C55.79424135 28.85035735 57.68311881 30.08983407 59.625 31.3125 C60.40875 31.869375 61.1925 32.42625 62 33 C62 33.66 62 34.32 62 35 C62.74113037 35.25668457 63.48226074 35.51336914 64.24584961 35.77783203 C67.12158433 37.05395365 68.80886284 38.38663081 71.06640625 40.5546875 C71.79923828 41.25207031 72.53207031 41.94945312 73.28710938 42.66796875 C74.03798828 43.39628906 74.78886719 44.12460938 75.5625 44.875 C76.69461914 45.95587891 76.69461914 45.95587891 77.84960938 47.05859375 C79.90943516 49.02949314 81.96100696 51.00756401 84 53 C84.74113037 53.69754395 85.48226074 54.39508789 86.24584961 55.11376953 C88 57 88 57 88 59 C88.66 59 89.32 59 90 59 C92.75873537 61.96682963 95.21142353 65.18678319 97.71484375 68.37060547 C98.96492874 69.95553465 100.23224334 71.52682652 101.5 73.09765625 C107.78619971 80.96739306 113.07855708 89.21935772 118 98 C118.38575195 98.68642578 118.77150391 99.37285156 119.16894531 100.08007812 C147.34019135 150.65339677 153.04272867 209.48191657 137.83691406 265.10791016 C132.6523391 283.02403471 124.8188431 300.16100649 115 316 C114.38898438 316.99128906 113.77796875 317.98257812 113.1484375 319.00390625 C110.30040896 323.55469228 107.36437296 327.81401175 104 332 C103.67 332.66 103.34 333.32 103 334 C102.34 334 101.68 334 101 334 C100.6596875 334.7734375 100.6596875 334.7734375 100.3125 335.5625 C98.51782382 338.89547005 96.50034985 342.14703671 94 345 C93.34 345 92.68 345 92 345 C91.74025391 345.58426758 91.48050781 346.16853516 91.21289062 346.77050781 C89.915344 349.15561164 88.50658878 350.75190637 86.59375 352.671875 C85.93246094 353.33574219 85.27117187 353.99960937 84.58984375 354.68359375 C83.90019531 355.36550781 83.21054687 356.04742187 82.5 356.75 C81.46552734 357.79607422 81.46552734 357.79607422 80.41015625 358.86328125 C79.74886719 359.52199219 79.08757812 360.18070312 78.40625 360.859375 C77.80103516 361.46233398 77.19582031 362.06529297 76.57226562 362.68652344 C75 364 75 364 73 364 C73 364.66 73 365.32 73 366 C71.1015625 367.7265625 71.1015625 367.7265625 68.625 369.625 C67.81289063 370.25664062 67.00078125 370.88828125 66.1640625 371.5390625 C64 373 64 373 62 373 C62 373.66 62 374.32 62 375 C22.20177645 408.80507929 -36.33794537 422.50704206 -87.24609375 418.5 C-104.56237554 416.82387508 -121.38915229 413.0991599 -138 408 C-138.67740234 407.79262207 -139.35480469 407.58524414 -140.05273438 407.37158203 C-149.20509646 404.50011211 -157.64291662 400.43100949 -166.10986328 395.98779297 C-167.84480648 395.08110475 -169.59180445 394.19758162 -171.33984375 393.31640625 C-184.60069907 386.4810828 -196.73494658 377.7536734 -208 368 C-208.81597656 367.29488281 -209.63195312 366.58976562 -210.47265625 365.86328125 C-215.33129893 361.57443185 -220.01009202 357.1106536 -224.625 352.5625 C-225.15859131 352.04196045 -225.69218262 351.5214209 -226.24194336 350.98510742 C-227.53451245 349.69551415 -228.77262977 348.35179436 -230 347 C-230 346.34 -230 345.68 -230 345 C-230.66 345 -231.32 345 -232 345 C-233.81404248 342.91219654 -235.51105999 340.81951532 -237.1875 338.625 C-237.68435303 337.98087158 -238.18120605 337.33674316 -238.69311523 336.6730957 C-240.13833418 334.78912021 -241.57174286 332.89685504 -243 331 C-243.63679688 330.15566406 -244.27359375 329.31132812 -244.9296875 328.44140625 C-264.43929732 301.5106769 -276.12357449 270.57488064 -282 238 C-282.13132324 237.3002002 -282.26264648 236.60040039 -282.39794922 235.87939453 C-291.75410796 183.79721493 -276.45106891 126.17708432 -247 83 C-243.82201855 78.54018257 -240.42925958 74.26907825 -237 70 C-235.12015692 67.50746732 -233.24313172 65.01303935 -231.375 62.51171875 C-230.694375 61.76341797 -230.694375 61.76341797 -230 61 C-229.34 61 -228.68 61 -228 61 C-228 60.34 -228 59.68 -228 59 C-227.34 59 -226.68 59 -226 59 C-225.77183594 58.44699219 -225.54367188 57.89398438 -225.30859375 57.32421875 C-220.47428539 48.73790987 -209.92355282 40.65968058 -202 35 C-201.34 35 -200.68 35 -200 35 C-200 34.34 -200 33.68 -200 33 C-198.31030273 31.61474609 -198.31030273 31.61474609 -195.93359375 30.0234375 C-195.06323486 29.43900879 -194.19287598 28.85458008 -193.29614258 28.25244141 C-192.35279053 27.63288574 -191.40943848 27.01333008 -190.4375 26.375 C-189.47674561 25.74126465 -188.51599121 25.1075293 -187.52612305 24.45458984 C-163.61339942 8.856124 -137.90024049 -1.14994958 -110 -7 C-109.23139648 -7.16806152 -108.46279297 -7.33612305 -107.67089844 -7.50927734 C-72.49150678 -14.90538038 -33.95784691 -10.56829601 0 0 Z M-178 34 C-179.24523437 34.73089844 -179.24523437 34.73089844 -180.515625 35.4765625 C-182.38058499 36.59162599 -184.19739873 37.78671068 -186 39 C-186 39.66 -186 40.32 -186 41 C-187.1446875 41.433125 -187.1446875 41.433125 -188.3125 41.875 C-191.15029308 42.96269013 -191.15029308 42.96269013 -194 45 C-194 45.66 -194 46.32 -194 47 C-194.56976563 47.25265625 -195.13953125 47.5053125 -195.7265625 47.765625 C-200.43188695 50.32040597 -204.1310626 54.34317811 -208 58 C-208.5347998 58.50080078 -209.06959961 59.00160156 -209.62060547 59.51757812 C-219.21153791 68.56196336 -227.26669382 78.34163204 -235 89 C-235.7115625 89.96164063 -236.423125 90.92328125 -237.15625 91.9140625 C-241.32439975 97.67269044 -244.78638335 103.66371811 -248 110 C-248.49886719 110.96776367 -248.49886719 110.96776367 -249.0078125 111.95507812 C-265.91831543 145.01571964 -275.02572905 183.83205099 -271 221 C-270.90944336 221.87285645 -270.81888672 222.74571289 -270.72558594 223.64501953 C-266.61267536 261.64532699 -253.12567404 296.76703019 -229.4375 326.89453125 C-227.89767157 328.85633189 -226.3744489 330.83138501 -224.875 332.82421875 C-224.25625 333.64535156 -223.6375 334.46648437 -223 335.3125 C-222.46375 336.03050781 -221.9275 336.74851562 -221.375 337.48828125 C-220.92125 337.98714844 -220.4675 338.48601562 -220 339 C-219.34 339 -218.68 339 -218 339 C-218 339.66 -218 340.32 -218 341 C-217.34 341 -216.68 341 -216 341 C-215.61328125 341.87398438 -215.61328125 341.87398438 -215.21875 342.765625 C-213.90165983 345.1802903 -212.44911616 346.81740177 -210.5 348.75 C-209.58734375 349.67039062 -209.58734375 349.67039062 -208.65625 350.609375 C-207.10515723 352.21434088 -207.10515723 352.21434088 -205 352 C-205 352.66 -205 353.32 -205 354 C-204.34 354 -203.68 354 -203 354 C-203 354.66 -203 355.32 -203 356 C-200.68471917 357.92280878 -198.36179167 359.72322094 -195.9375 361.5 C-194.85734619 362.29978271 -194.85734619 362.29978271 -193.75537109 363.11572266 C-186.66213431 368.32527831 -179.39312232 373.22885711 -172 378 C-171.20078125 378.54011719 -170.4015625 379.08023437 -169.578125 379.63671875 C-160.744501 385.35351443 -150.72085745 389.07806127 -141 393 C-140.26330078 393.29970703 -139.52660156 393.59941406 -138.76757812 393.90820312 C-92.18690408 412.5492865 -36.98632458 409.95470319 9 391 C17.48697661 387.36249529 25.88117458 383.74537468 33.30883789 378.20629883 C34.99217336 377.00558271 36.70014332 375.99003439 38.5078125 374.98828125 C42.14908129 372.96253356 45.50460602 370.63214899 48.875 368.1875 C49.77919678 367.53491211 49.77919678 367.53491211 50.70166016 366.86914062 C58.08176682 361.71664973 58.08176682 361.71664973 65 356 C65 355.34 65 354.68 65 354 C65.66 354 66.32 354 67 354 C67 353.34 67 352.68 67 352 C67.56203125 351.7628125 68.1240625 351.525625 68.703125 351.28125 C71.51894042 349.71052303 73.47955416 347.78528536 75.75 345.5 C76.54921875 344.7059375 77.3484375 343.911875 78.171875 343.09375 C80.21923609 341.21216538 80.21923609 341.21216538 80 339 C80.66 339 81.32 339 82 339 C82 338.34 82 337.68 82 337 C82.66 337 83.32 337 84 337 C85.81628776 335.05624046 85.81628776 335.05624046 87.625 332.625 C88.25664062 331.81289063 88.88828125 331.00078125 89.5390625 330.1640625 C91.18650808 328.15890121 91.18650808 328.15890121 91 326 C91.66 326 92.32 326 93 326 C95.94952013 322.2016971 98.43346971 318.06422277 101 314 C101.36577148 313.42765625 101.73154297 312.8553125 102.10839844 312.265625 C131.23154179 266.45277948 139.95269798 212.8924423 128.41015625 160.015625 C120.04019152 123.51117839 102.04286471 90.92442853 76 64 C75.53126465 63.5054834 75.0625293 63.0109668 74.57958984 62.50146484 C68.85330985 56.46513247 62.90678967 50.91234298 56.375 45.75 C55.77067139 45.27167725 55.16634277 44.79335449 54.54370117 44.30053711 C51.60969319 41.80126888 51.60969319 41.80126888 48 41 C48 40.34 48 39.68 48 39 C45.76095002 37.39406071 43.53483901 35.93379932 41.1875 34.5 C40.47408447 34.06075195 39.76066895 33.62150391 39.02563477 33.16894531 C15.18211479 18.69335038 -9.29119227 9.31179908 -36.72802734 4.40673828 C-38.68232799 4.056871 -40.63264233 3.6848662 -42.58203125 3.30859375 C-89.87887611 -4.565037 -137.7986932 9.61755061 -178 34 Z " fill="#F8FAF5" transform="translate(319,45)"/>
<path d="M0 0 C2.9375 2.4375 2.9375 2.4375 5 5 C5.495 5.495 5.495 5.495 6 6 C6.10128954 8.11717248 6.13077872 10.23778409 6.13371277 12.3573761 C6.13597833 13.0291944 6.13824388 13.7010127 6.14057809 14.39318913 C6.14694549 16.66098761 6.14608698 18.92872674 6.14526367 21.1965332 C6.14825351 22.81578652 6.15165563 24.43503912 6.15544128 26.05429077 C6.16430464 30.46552027 6.16662041 34.87673038 6.16725707 39.28796792 C6.16820449 42.96592897 6.17188095 46.64388546 6.17542917 50.32184476 C6.18358307 58.99833829 6.1860126 67.67482144 6.18530273 76.35131836 C6.18470211 85.30979998 6.19524872 94.26822135 6.2110464 103.22668773 C6.22411246 110.90908763 6.229487 118.59146782 6.22884732 126.27387875 C6.228592 130.86604659 6.23146169 135.45816096 6.24202538 140.05031776 C6.25169034 144.37012037 6.25179657 148.68981823 6.24450874 153.00962448 C6.24346081 154.59631566 6.24583812 156.18301331 6.2518692 157.76969337 C6.25956299 159.93381063 6.25496184 162.09756381 6.24723816 164.26167297 C6.24778293 165.47345372 6.24832769 166.68523447 6.24888897 167.93373585 C6.01087006 170.86608292 5.53921586 172.53166029 4 175 C3.34 175 2.68 175 2 175 C2 175.66 2 176.32 2 177 C0.60805394 177.25170266 -0.7889827 177.4753269 -2.1875 177.6875 C-2.96480469 177.81511719 -3.74210937 177.94273437 -4.54296875 178.07421875 C-10.60525946 177.89109709 -15.56481945 172.16578162 -20 168.4375 C-26.44833332 163.05490858 -33.00006843 157.88367034 -39.75390625 152.890625 C-40.86572266 151.95476562 -40.86572266 151.95476562 -42 151 C-42 150.34 -42 149.68 -42 149 C-42.79664063 148.64421875 -42.79664063 148.64421875 -43.609375 148.28125 C-46.69742595 146.62621616 -49.4528472 144.59451872 -52.25 142.5 C-53.08144531 141.89478516 -53.08144531 141.89478516 -53.9296875 141.27734375 C-55.32569165 140.23549829 -56.66802392 139.12254588 -58 138 C-58 137.34 -58 136.68 -58 136 C-58.66 136 -59.32 136 -60 136 C-60 135.34 -60 134.68 -60 134 C-61.07894531 133.98541748 -62.15789062 133.97083496 -63.26953125 133.95581055 C-67.30289541 133.89749062 -71.33572081 133.82026207 -75.36865234 133.73754883 C-77.10847172 133.70445707 -78.84839439 133.67637693 -80.58837891 133.65356445 C-83.10103041 133.61972645 -85.61274866 133.56739974 -88.125 133.51171875 C-89.27705933 133.50213387 -89.27705933 133.50213387 -90.45239258 133.49235535 C-96.81296512 133.32225486 -102.71175512 132.28824488 -107.375 127.625 C-110.26855802 122.95079088 -111.25240314 119.27682618 -111.30639648 113.77612305 C-111.32238388 112.54101486 -111.33837128 111.30590668 -111.35484314 110.03337097 C-111.36122106 108.69282446 -111.36661341 107.35227295 -111.37109375 106.01171875 C-111.38007017 104.62555347 -111.38919219 103.23938912 -111.39845276 101.85322571 C-111.41491297 98.95071059 -111.42263726 96.04831039 -111.42553711 93.14575195 C-111.43091439 89.44354371 -111.46857782 85.74242994 -111.51428127 82.0405302 C-111.54416482 79.17757822 -111.5512631 76.31488608 -111.55226326 73.45179176 C-111.55644419 72.08792934 -111.56879244 70.72406461 -111.58978081 69.36035728 C-111.70360114 61.32479385 -111.51010159 55.19219855 -106 49 C-101.16447831 44.45754023 -95.64108068 44.81440171 -89.296875 44.68359375 C-88.45908508 44.66281265 -87.62129517 44.64203156 -86.75811768 44.62062073 C-84.08882644 44.5553745 -81.41943902 44.49635642 -78.75 44.4375 C-76.93749016 44.39429106 -75.12498995 44.35067601 -73.3125 44.30664062 C-68.87509791 44.19971871 -64.43759932 44.09838134 -60 44 C-60 43.34 -60 42.68 -60 42 C-59.34 42 -58.68 42 -58 42 C-58 41.34 -58 40.68 -58 40 C-56.1015625 38.2734375 -56.1015625 38.2734375 -53.625 36.375 C-52.81289062 35.74335938 -52.00078125 35.11171875 -51.1640625 34.4609375 C-49 33 -49 33 -47 33 C-47 32.34 -47 31.68 -47 31 C-44.95210051 29.25504422 -42.8944695 27.61893522 -40.75 26 C-34.79159645 21.4287825 -29.02265111 16.69594207 -23.328125 11.80078125 C-21 10 -21 10 -19 10 C-19 9.34 -19 8.68 -19 8 C-15.53846154 5 -15.53846154 5 -13 5 C-13 4.34 -13 3.68 -13 3 C-9.03053222 -0.22519257 -4.95036514 -1.11008188 0 0 Z " fill="#F8F9F6" transform="translate(265,161)"/>
<path d="M0 0 C2.4375 1.9375 2.4375 1.9375 5 5 C5.57234375 5.62261719 6.1446875 6.24523437 6.734375 6.88671875 C17.34392372 19.04526158 24.16929168 34.43774744 28 50 C28.18256348 50.69456299 28.36512695 51.38912598 28.55322266 52.10473633 C30.45734233 60.17816981 30.39616267 68.31745666 30.375 76.5625 C30.37478851 77.3194516 30.37457703 78.0764032 30.37435913 78.85629272 C30.34305887 90.05867265 29.73329146 100.34047043 26 111 C25.4740625 112.64742187 25.4740625 112.64742187 24.9375 114.328125 C20.5789944 126.8588286 13.68215677 138.97023111 5 149 C4.236875 150.010625 3.47375 151.02125 2.6875 152.0625 C-0.82353824 154.59371361 -3.35607428 154.76834881 -7.62109375 154.55859375 C-10.28278415 153.93359912 -11.28246741 153.28951256 -13.0625 151.25 C-16 146.32258065 -16 146.32258065 -16 144 C-14.68558456 139.90211658 -13.22116031 137.08457509 -10.3125 133.9375 C6.91406125 114.78259234 9.65173666 89.68505612 8.9140625 65.140625 C7.85092211 49.64915076 0.1673911 34.28406578 -8.7734375 21.796875 C-10.0451854 19.93380483 -11.03574219 18.03665669 -12 16 C-12.66 16 -13.32 16 -14 16 C-15.68807947 11.64653189 -16.22880997 9.85803739 -15 5.25 C-11.25187878 -0.84069698 -6.74932788 -1.96344084 0 0 Z " fill="#F7F8F3" transform="translate(336,173)"/>
<path d="M0 0 C0 0.66 0 1.32 0 2 C0.66 2 1.32 2 2 2 C8.19692413 10.23520602 12.02404139 19.16849302 15 29 C15.24621094 29.7425 15.49242187 30.485 15.74609375 31.25 C20.70547122 48.76173285 15.93781662 67.30536001 7.78125 82.9140625 C1.89682865 93.10856439 1.89682865 93.10856439 -4 95 C-7.87639415 95.09956492 -11.52789866 95.09988437 -14.71484375 92.71875 C-17.08905859 89.54350827 -17.1098636 85.86582555 -17 82 C-15.875 79.4375 -15.875 79.4375 -14 77 C-5.28665486 64.98658394 -3.49231007 51.47188211 -5 37 C-6.41574373 29.73834816 -9.28385906 23.88632751 -13.6328125 17.9375 C-16.20656908 14.29011924 -17.33875125 11.94495635 -16.8125 7.4375 C-16.73644531 6.67308594 -16.66039062 5.90867188 -16.58203125 5.12109375 C-15.88619346 2.58525537 -15.05370586 1.61257572 -13 0 C-8.52745503 -1.49084832 -4.47254497 -1.49084832 0 0 Z " fill="#F6F7F3" transform="translate(310,203)"/>
<path d="M0 0 C0.66 0 1.32 0 2 0 C2.04241723 2.33294775 2.04092937 4.66702567 2 7 C1.67 7.33 1.34 7.66 1 8 C0.90006414 9.94064123 0.86919081 11.88491334 0.8671875 13.828125 C0.86589844 15.02050781 0.86460938 16.21289062 0.86328125 17.44140625 C0.86714844 18.69824219 0.87101562 19.95507812 0.875 21.25 C0.87113281 22.49136719 0.86726563 23.73273438 0.86328125 25.01171875 C0.86457031 26.20925781 0.86585937 27.40679687 0.8671875 28.640625 C0.86831543 29.73922852 0.86944336 30.83783203 0.87060547 31.96972656 C0.98999008 34.7655789 1.4111869 37.27269373 2 40 C1.85311416 42.71501896 1.41101967 45.3055377 1 48 C0.67 48 0.34 48 0 48 C-0.7409328 42.70273513 -1.12814732 37.60671616 -1.1328125 32.24609375 C-1.13376923 31.54154556 -1.13472595 30.83699738 -1.13571167 30.11109924 C-1.13638663 28.6346935 -1.13458059 27.15828466 -1.13037109 25.68188477 C-1.1250049 23.43954737 -1.13034361 21.19740949 -1.13671875 18.95507812 C-1.136058 17.51041623 -1.13477691 16.06575446 -1.1328125 14.62109375 C-1.13168457 13.3261499 -1.13055664 12.03120605 -1.12939453 10.69702148 C-1.0011429 7.03265456 -0.58748304 3.61269982 0 0 Z " fill="#E6EDDE" transform="translate(36,226)"/>
<path d="M0 0 C0 3.47197092 -0.9285885 4.78726545 -3.15625 7.37109375 C-6.91845698 10.69490796 -11.52471731 12.78979033 -16 15 C-16 14.34 -16 13.68 -16 13 C-14.1015625 11.2734375 -14.1015625 11.2734375 -11.625 9.375 C-10.40683594 8.42753906 -10.40683594 8.42753906 -9.1640625 7.4609375 C-7 6 -7 6 -5 6 C-5 5.34 -5 4.68 -5 4 C-3.37373596 2.61767557 -1.7074998 1.28062485 0 0 Z " fill="#E0E7D6" transform="translate(223,188)"/>
<path d="M0 0 C0 4.31618166 -2.13270348 5.92789659 -5 9 C-5.66 9 -6.32 9 -7 9 C-7.33 9.66 -7.66 10.32 -8 11 C-9.64646685 12.68662458 -11.31183067 14.35511706 -13 16 C-13.66 15.34 -14.32 14.68 -15 14 C-13.25311063 12.22600373 -11.50266549 10.45577447 -9.75 8.6875 C-9.25886719 8.18798828 -8.76773438 7.68847656 -8.26171875 7.17382812 C-5.64859804 4.54328661 -3.04342089 2.12314838 0 0 Z " fill="#ECF3E4" transform="translate(110,86)"/>
<path d="M0 0 C1.65 0 3.3 0 5 0 C5.33 0.66 5.66 1.32 6 2 C6.99 2.33 7.98 2.66 9 3 C9 2.34 9 1.68 9 1 C12.465 0.505 12.465 0.505 16 0 C16 0.66 16 1.32 16 2 C12.80254858 4.13163428 11.71242084 4.31975564 8 4.375 C7.13375 4.40335937 6.2675 4.43171875 5.375 4.4609375 C3 4 3 4 1.1875 1.9765625 C0.795625 1.32429688 0.40375 0.67203125 0 0 Z " fill="#E8ECDF" transform="translate(323,323)"/>
<path d="M0 0 C2.31 0 4.62 0 7 0 C7.33 1.98 7.66 3.96 8 6 C8.99 6 9.98 6 11 6 C11 6.66 11 7.32 11 8 C11.66 8.33 12.32 8.66 13 9 C9.23660802 9 8.27456755 7.93898713 5.375 5.625 C4.57835937 4.99851562 3.78171875 4.37203125 2.9609375 3.7265625 C1 2 1 2 0 0 Z " fill="#E6EBDD" transform="translate(208,298)"/>
<path d="M0 0 C0.33 1.32 0.66 2.64 1 4 C0.1028125 4.37125 0.1028125 4.37125 -0.8125 4.75 C-3.135974 5.86434075 -3.135974 5.86434075 -4.4375 8.125 C-6 10 -6 10 -8.6875 10.25 C-9.450625 10.1675 -10.21375 10.085 -11 10 C-6.375 5.125 -6.375 5.125 -3 4 C-3 3.34 -3 2.68 -3 2 C-2.01 1.34 -1.02 0.68 0 0 Z " fill="#EDF0E4" transform="translate(122,76)"/>
<path d="M0 0 C-0.33 0.66 -0.66 1.32 -1 2 C-1.928125 1.979375 -2.85625 1.95875 -3.8125 1.9375 C-7.02286011 1.84230396 -7.02286011 1.84230396 -10 3 C-10 2.34 -10 1.68 -10 1 C-11.32 1.33 -12.64 1.66 -14 2 C-11.59184358 -2.81631284 -4.31829767 -1.43943256 0 0 Z " fill="#E6EBD6" transform="translate(310,203)"/>
<path d="M0 0 C0 2.31 0 4.62 0 7 C-0.99 7.495 -0.99 7.495 -2 8 C-2.33 8.99 -2.66 9.98 -3 11 C-3.66 11 -4.32 11 -5 11 C-4.71890887 9.35232753 -4.42481474 7.70686855 -4.125 6.0625 C-3.96257812 5.14597656 -3.80015625 4.22945313 -3.6328125 3.28515625 C-3.42398437 2.53105469 -3.21515625 1.77695312 -3 1 C-1 0 -1 0 0 0 Z " fill="#EDF2E6" transform="translate(308,258)"/>
<path d="M0 0 C1.32 0.33 2.64 0.66 4 1 C2.75023244 4.65316671 2.32901247 5.78065836 -1 8 C-1.99 8 -2.98 8 -4 8 C-4 7.34 -4 6.68 -4 6 C-3.01 5.34 -2.02 4.68 -1 4 C-0.27617533 1.94074861 -0.27617533 1.94074861 0 0 Z " fill="#EEF4E2" transform="translate(310,289)"/>
<path d="M0 0 C2.62506802 -0.02690844 5.24986173 -0.04679404 7.875 -0.0625 C8.62136719 -0.07087891 9.36773437 -0.07925781 10.13671875 -0.08789062 C15.7734375 -0.11328125 15.7734375 -0.11328125 18 1 C18 1.66 18 2.32 18 3 C11.98673249 2.42085333 5.99107278 1.77662055 0 1 C0 0.67 0 0.34 0 0 Z " fill="#E8ECE0" transform="translate(272,48)"/>
<path d="M0 0 C0.33 0 0.66 0 1 0 C1.33 4.29 1.66 8.58 2 13 C0.02 13.99 0.02 13.99 -2 15 C-1.34 10.05 -0.68 5.1 0 0 Z " fill="#E4EBD9" transform="translate(345,259)"/>
<path d="M0 0 C2.64465038 3.1254959 3.84414715 6.08788267 5 10 C2.5625 8.875 2.5625 8.875 0 7 C-0.875 3.875 -0.875 3.875 -1 1 C-0.67 0.67 -0.34 0.34 0 0 Z " fill="#E6ECDD" transform="translate(353,197)"/>
<path d="M0 0 C2 4 2 4 2 7 C1.34 7.66 0.68 8.32 0 9 C-0.99 9 -1.98 9 -3 9 C-2.01 6.03 -1.02 3.06 0 0 Z " fill="#E9EEDF" transform="translate(340,282)"/>
<path d="M0 0 C0 3.20395416 -0.74335022 5.09399739 -2 8 C-2.66 8 -3.32 8 -4 8 C-4 8.66 -4 9.32 -4 10 C-4.99 9.67 -5.98 9.34 -7 9 C-4.69 6.03 -2.38 3.06 0 0 Z " fill="#ECF1D9" transform="translate(86,110)"/>
<path d="M0 0 C2.5 1.1875 2.5 1.1875 5 3 C5.3125 5.6875 5.3125 5.6875 5 8 C4.34 7.67 3.68 7.34 3 7 C3 6.34 3 5.68 3 5 C2.34 5 1.68 5 1 5 C0.67 3.35 0.34 1.7 0 0 Z " fill="#E9EEE0" transform="translate(321,184)"/>
<path d="M0 0 C0.33 0 0.66 0 1 0 C1.375 2.1875 1.375 2.1875 1 5 C-0.83961648 6.99022836 -2.79186148 8.38989899 -5 10 C-3.66654496 6.40992874 -2.1056769 3.20429093 0 0 Z " fill="#EAEEDD" transform="translate(427,346)"/>
<path d="M0 0 C0.66 0.33 1.32 0.66 2 1 C0.35 3.64 -1.3 6.28 -3 9 C-3.33 7.68 -3.66 6.36 -4 5 C-3.34 4.01 -2.68 3.02 -2 2 C-1.34 2 -0.68 2 0 2 C0 1.34 0 0.68 0 0 Z " fill="#E1ECD9" transform="translate(352,302)"/>
<path d="M0 0 C1.25541557 3.76624671 0.37061958 5.37188934 -1 9 C-3 7 -3 7 -3.125 4.375 C-3.08375 3.59125 -3.0425 2.8075 -3 2 C-2.01 2 -1.02 2 0 2 C0 1.34 0 0.68 0 0 Z " fill="#E9EEE2" transform="translate(324,265)"/>
<path d="M0 0 C0.97687451 3.03916514 1.105817 4.98413546 0 8 C-0.66 8.66 -1.32 9.32 -2 10 C-1.85950482 8.52031676 -1.71245174 7.04125484 -1.5625 5.5625 C-1.48128906 4.73878906 -1.40007812 3.91507812 -1.31640625 3.06640625 C-1 1 -1 1 0 0 Z " fill="#DCE5D3" transform="translate(295,281)"/>
<path d="M0 0 C0.91058531 3.07322544 1.08886184 5.80097361 1 9 C0.34 9 -0.32 9 -1 9 C-1.33 9.99 -1.66 10.98 -2 12 C-1.85831863 10.56208484 -1.71148957 9.1246763 -1.5625 7.6875 C-1.48128906 6.88699219 -1.40007813 6.08648437 -1.31640625 5.26171875 C-1 3 -1 3 0 0 Z " fill="#EBEFDE" transform="translate(43,190)"/>
<path d="M0 0 C6.625 0.75 6.625 0.75 10 3 C2.25 3.125 2.25 3.125 0 2 C0 1.34 0 0.68 0 0 Z " fill="#EBF0DB" transform="translate(309,43)"/>
<path d="M0 0 C2.475 0.495 2.475 0.495 5 1 C5.33 2.65 5.66 4.3 6 6 C3.97945196 4.35830472 1.97956942 2.69088222 0 1 C0 0.67 0 0.34 0 0 Z " fill="#EBF1E2" transform="translate(90,392)"/>
</svg>
